<svg xmlns="http://www.w3.org/2000/svg" xmlns:xlink="http://www.w3.org/1999/xlink" width="1920" height="532" viewBox="0 0 1920 532"><defs><style>.a{fill:#585858;}.b,.e,.l{fill:#4b647e;}.c{fill:#fff;}.d,.f{fill:#747474;}.d,.l,.m{font-size:14px;}.d,.e,.f,.l,.m{font-family:SegoeUI, Segoe UI;}.e,.f{font-size:16px;}.g,.k{fill:#3d37f1;}.g{font-size:32px;font-family:SegoeUI-Bold, Segoe UI;font-weight:700;}.h{fill:#434343;}.i{opacity:0.8;}.j{clip-path:url(#a);}.m{fill:#969ca2;}.n{fill:#a19b9b;}.o{clip-path:url(#d);}.p{filter:url(#b);}</style><clipPath id="a"><rect class="a" width="8" height="14.548"/></clipPath><filter id="b" x="1237.5" y="148.5" width="345" height="131" filterUnits="userSpaceOnUse"><feOffset dy="12" input="SourceAlpha"/><feGaussianBlur stdDeviation="12.5" result="c"/><feFlood flood-color="#193298" flood-opacity="0.078"/><feComposite operator="in" in2="c"/><feComposite in="SourceGraphic"/></filter><clipPath id="d"><rect class="b" width="13.941" height="14.012" transform="translate(0 0)"/></clipPath></defs><g transform="translate(0 -5688)"><rect class="c" width="1920" height="532" transform="translate(0 5688)"/><text class="d" transform="translate(375 5848)"><tspan x="0" y="15">The Managing Director &amp; Cluster Head </tspan><tspan x="0" y="43">India &amp; South-West Asia at Logitech </tspan><tspan x="0" y="71">Sumanta Datta and Goutam Saha, </tspan><tspan x="0" y="99">Managing Director of Excel </tspan><tspan x="0" y="127">Technologies Ltd</tspan></text><text class="e" transform="translate(705 5834)"><tspan x="0" y="17">+123 456 789 00</tspan></text><text class="e" transform="translate(875 5834)"><tspan x="0" y="17">Feature</tspan></text><text class="e" transform="translate(1075 5834)"><tspan x="0" y="17">About us</tspan></text><text class="e" transform="translate(705 5873)"><tspan x="0" y="17">Contact Us</tspan></text><text class="e" transform="translate(875 5873)"><tspan x="0" y="17">Careers</tspan></text><text class="e" transform="translate(1075 5873)"><tspan x="0" y="17">Our clients</tspan></text><text class="e" transform="translate(875 5912)"><tspan x="0" y="17">Blog Post</tspan></text><text class="e" transform="translate(1075 5912)"><tspan x="0" y="17">Legal notic</tspan></text><text class="e" transform="translate(875 5951)"><tspan x="0" y="17">Help &amp; Support</tspan></text><text class="f" transform="translate(675 5788)"><tspan x="0" y="17">Contact</tspan></text><text class="f" transform="translate(875 5788)"><tspan x="0" y="17">Viewer guides</tspan></text><text class="f" transform="translate(1075 5788)"><tspan x="0" y="17">Community</tspan></text><text class="f" transform="translate(1275 5788)"><tspan x="0" y="17">Sign up for monthly newsletter</tspan></text><text class="g" transform="translate(375 5820)"><tspan x="0" y="0">Ab</tspan><tspan class="h" y="0">Tech</tspan></text><g class="i" transform="translate(103 5638.11)"><g transform="translate(276 382.89)"><g class="j"><path class="a" d="M284.146,382.795l-1.866,0a3.276,3.276,0,0,0-3.45,3.541v1.633h-1.876a.293.293,0,0,0-.294.293v2.366a.294.294,0,0,0,.294.293h1.876v5.969a.293.293,0,0,0,.293.293h2.448a.293.293,0,0,0,.293-.293v-5.969h2.193a.294.294,0,0,0,.294-.293v-2.366a.293.293,0,0,0-.294-.293h-2.194v-1.384c0-.665.158-1,1.025-1h1.256a.294.294,0,0,0,.294-.293v-2.2a.294.294,0,0,0-.293-.294Zm0,0" transform="translate(-276.537 -382.81)"/></g></g></g><g transform="translate(347 5800.11)"><path class="a" d="M66,224.236a5.739,5.739,0,0,1-1.649.452,2.884,2.884,0,0,0,1.262-1.588,5.793,5.793,0,0,1-1.825.7,2.874,2.874,0,0,0-4.894,2.618,8.154,8.154,0,0,1-5.919-3,2.875,2.875,0,0,0,.889,3.833,2.872,2.872,0,0,1-1.3-.36v.036a2.875,2.875,0,0,0,2.3,2.816,2.907,2.907,0,0,1-.757.1,2.751,2.751,0,0,1-.541-.053,2.874,2.874,0,0,0,2.682,1.995,5.762,5.762,0,0,1-3.567,1.227A6.1,6.1,0,0,1,52,232.97a8.165,8.165,0,0,0,12.573-6.879l-.01-.372A5.737,5.737,0,0,0,66,224.236Zm0,0" transform="translate(0 0)"/></g><g transform="translate(333 5727.11)"><path class="a" d="M377.814,347.9v-2.808h-1.4V347.9H373.6v1.4h2.808v2.808h1.4V349.3h2.809v-1.4Zm0,0" transform="translate(-266.423 -48.458)"/><path class="a" d="M99.021,299.44v2.775h3.972a4.193,4.193,0,1,1-1.244-4.545l1.845-2.092a6.912,6.912,0,1,0,2.447,5.25V299.44Zm0,0"/></g><g transform="translate(286 5689.11)"><path class="a" d="M188.376,334.857c-.577-.686-1.644-.967-3.68-.967H177.3c-2.083,0-3.167.3-3.743,1.029-.561.713-.561,1.763-.561,3.216v2.77c0,2.815.666,4.245,4.3,4.245H184.7c1.766,0,2.745-.247,3.378-.853.649-.621.926-1.636.926-3.392v-2.77c0-1.533-.043-2.589-.624-3.278Zm-5.1,5.046-3.357,1.754a.516.516,0,0,1-.755-.457v-3.5a.516.516,0,0,1,.754-.458l3.357,1.743a.516.516,0,0,1,0,.916Zm0,0"/></g><g class="p" transform="matrix(1, 0, 0, 1, 0, 5688)"><rect class="c" width="270" height="56" rx="5" transform="translate(1275 174)"/></g><path class="k" d="M0,0H56a5,5,0,0,1,5,5V51a5,5,0,0,1-5,5H0a0,0,0,0,1,0,0V0A0,0,0,0,1,0,0Z" transform="translate(1484 5862)"/><text class="l" transform="translate(1340 5897)"><tspan x="0" y="0">Email</tspan></text><text class="l" transform="translate(1312 5896)"><tspan x="0" y="0">@</tspan></text><text class="m" transform="translate(375 6148)"><tspan x="0" y="0">© 2019 all rights reserved</tspan></text><text class="m" transform="translate(1355 6148)"><tspan x="0" y="0">Designed with love by</tspan><tspan class="n" y="0"> </tspan><tspan class="b" y="0">UiExpert</tspan></text><path class="c" d="M25.267.42l0,0,0,0a1.384,1.384,0,0,0-1.5-.31L.892,9.043a1.4,1.4,0,0,0,.323,2.7l11.177,1.507a.047.047,0,0,1,.04.041L13.94,24.463a1.385,1.385,0,0,0,1.223,1.2,1.477,1.477,0,0,0,.175.01,1.382,1.382,0,0,0,1.3-.892L25.578,1.917A1.384,1.384,0,0,0,25.267.42ZM1.355,10.354c0-.036.006-.041.03-.05l21.4-8.366L12.774,11.946C12.709,11.927,1.4,10.4,1.4,10.4,1.371,10.392,1.36,10.39,1.355,10.354ZM15.374,24.293c-.009.023-.013.034-.05.03s-.038-.016-.041-.041c0,0-1.532-11.313-1.551-11.378L23.74,2.9Z" transform="translate(1501 5878.321)"/><g transform="translate(678.456 5875.406)"><path class="b" d="M158.482,215.89a5.483,5.483,0,0,0-4.664,8.365l4.352,7.013a.457.457,0,0,0,.388.216h0a.457.457,0,0,0,.388-.222l4.241-7.081a5.483,5.483,0,0,0-4.709-8.291Zm3.925,7.822-3.856,6.438-3.956-6.376a4.572,4.572,0,1,1,7.812-.062Zm0,0" transform="translate(-153 -215.89)"/><path class="b" d="M227.741,287.89a2.741,2.741,0,1,0,2.741,2.741,2.744,2.744,0,0,0-2.741-2.741Zm0,4.575a1.833,1.833,0,1,1,1.83-1.833,1.835,1.835,0,0,1-1.83,1.833Zm0,0" transform="translate(-222.259 -285.149)"/></g><g transform="translate(676 5838.108)"><g class="o" transform="translate(0 0)"><path class="b" d="M119.286,261.522a1.372,1.372,0,0,0-.995-.456,1.418,1.418,0,0,0-1.006.453l-.93.927c-.077-.041-.153-.079-.227-.118-.106-.053-.206-.1-.291-.156a10.108,10.108,0,0,1-2.422-2.207,5.972,5.972,0,0,1-.795-1.254c.241-.221.465-.45.683-.671l.247-.25a1.35,1.35,0,0,0,0-2.037l-.8-.8c-.091-.091-.185-.185-.274-.279-.176-.182-.362-.371-.553-.548a1.393,1.393,0,0,0-.986-.433,1.442,1.442,0,0,0-1,.433l-.006.006-1,1.009a2.154,2.154,0,0,0-.639,1.369,5.16,5.16,0,0,0,.377,2.184,12.675,12.675,0,0,0,2.251,3.755,13.853,13.853,0,0,0,4.612,3.611,7.188,7.188,0,0,0,2.59.765c.062,0,.127.006.185.006a2.217,2.217,0,0,0,1.7-.73c0-.006.009-.009.012-.015a6.711,6.711,0,0,1,.515-.533c.127-.121.256-.247.383-.38a1.468,1.468,0,0,0,.444-1.018,1.414,1.414,0,0,0-.453-1.009Zm1.053,3.1s0,0,0,0c-.115.124-.232.236-.359.359a7.751,7.751,0,0,0-.568.589,1.418,1.418,0,0,1-1.107.468c-.044,0-.091,0-.135,0a6.386,6.386,0,0,1-2.3-.689,13.077,13.077,0,0,1-4.344-3.4,11.951,11.951,0,0,1-2.119-3.529,4.2,4.2,0,0,1-.33-1.842,1.351,1.351,0,0,1,.406-.874l1-1a.67.67,0,0,1,.447-.209.63.63,0,0,1,.43.206l.009.009c.179.168.35.341.53.527.091.094.185.188.28.286l.8.8a.562.562,0,0,1,0,.912c-.085.085-.168.171-.253.253-.247.253-.483.489-.739.718-.006.006-.012.009-.015.015a.6.6,0,0,0-.153.668l.009.027a6.454,6.454,0,0,0,.951,1.551l0,0a10.8,10.8,0,0,0,2.613,2.378,4,4,0,0,0,.362.2c.106.053.206.1.291.156.012.006.023.015.035.021a.639.639,0,0,0,.291.074.629.629,0,0,0,.447-.2l1.006-1.006a.665.665,0,0,1,.444-.221.6.6,0,0,1,.424.215l.006.006,1.622,1.622a.582.582,0,0,1,0,.921Zm0,0" transform="translate(-108.265 -252.852)"/><path class="b" d="M304.283,301.3a3.788,3.788,0,0,1,3.084,3.084.4.4,0,0,0,.391.33.527.527,0,0,0,.068-.006.4.4,0,0,0,.327-.459,4.579,4.579,0,0,0-3.732-3.732.4.4,0,0,0-.459.324.393.393,0,0,0,.321.459Zm0,0" transform="translate(-296.747 -297.946)"/><path class="b" d="M313.626,237.916a7.541,7.541,0,0,0-6.145-6.145.4.4,0,1,0-.13.783,6.736,6.736,0,0,1,5.492,5.492.4.4,0,0,0,.391.33.512.512,0,0,0,.068-.006.39.39,0,0,0,.324-.453Zm0,0" transform="translate(-299.698 -231.732)"/></g></g></g></svg>